<svg height="471pt" viewBox="-32 0 471 471.5334" width="471pt" xmlns="http://www.w3.org/2000/svg"><path d="m289.722656 320.011719v34.5h-34.5c-3.316406 0-6 2.6875-6 6s2.683594 6 6 6h34.5v34.5c0 3.3125 2.683594 6 6 6 3.3125 0 6-2.6875 6-6v-34.5h34.5c3.3125 0 6-2.6875 6-6s-2.6875-6-6-6h-34.5v-34.5c0-3.3125-2.6875-6-6-6-3.316406 0-6 2.6875-6 6zm0 0"/><path d="m15.546875 380.46875c8.726563 8.691406 20.550781 13.554688 32.867187 13.519531h.230469l140.96875-.796875c16.554688 53.753906 70.695313 86.636719 126.03125 76.539063 55.332031-10.101563 94.367188-59.988281 90.863281-116.128907-3.507812-56.136718-48.449218-100.78125-104.609374-103.917968l-.765626-139.660156-.007812-1.71875c-.007812-1.59375-.648438-3.121094-1.78125-4.242188l-103.335938-102.128906c-.984374-.972656-2.273437-1.578125-3.648437-1.707032l-2.148437-.1992182c-.203126-.0195313-.40625-.0273438-.601563-.0273438l-142.863281.6875c-25.792969.125-46.597656 21.132812-46.480469 46.925781l1.441406 299.894531c.027344 12.394532 5.011719 24.261719 13.839844 32.960938zm379.175781-19.960938c0 54.675782-44.324218 99-99 99-54.675781 0-99-44.324218-99-99 0-54.675781 44.324219-99 99-99 54.648438.0625 98.9375 44.351563 99 99zm-113.917968-257.894531-48.058594.234375c-19.167969.089844-34.78125-15.375-34.871094-34.542968l-.230469-47.882813zm-258.488282-79.648437c6.460938-6.5625 15.28125-10.265625 24.492188-10.285156l138.792968-.664063.273438 56.347656c.121094 25.707031 20.992188 46.480469 46.699219 46.484375h.230469l56.351562-.269531.742188 135.082031c-31.996094 1.695313-61.703126 17.128906-81.484376 42.335938-19.785156 25.207031-27.714843 57.726562-21.753906 89.210937l-138.078125.78125h-.171875c-19.101562-.003906-34.605468-15.4375-34.699218-34.539062l-1.445313-299.894531c-.066406-9.210938 3.550781-18.0625 10.050781-24.589844zm0 0"/><path d="m165.585938 221.519531h-20.347657c-3.3125 0-6 2.683594-6 6 0 3.3125 2.6875 6 6 6h20.347657c3.3125 0 6-2.6875 6-6 0-3.316406-2.6875-6-6-6zm0 0"/><path d="m66.792969 182.632812h168.941406c3.316406 0 6-2.683593 6-6 0-3.3125-2.683594-6-6-6h-168.941406c-3.3125 0-6 2.6875-6 6 0 3.316407 2.6875 6 6 6zm0 0"/><path d="m66.792969 233.519531h52.660156c3.3125 0 6-2.6875 6-6 0-3.316406-2.6875-6-6-6h-52.660156c-3.3125 0-6 2.683594-6 6 0 3.3125 2.6875 6 6 6zm0 0"/></svg>