<?xml version="1.0"?>
<svg xmlns="http://www.w3.org/2000/svg" id="Layer_1" data-name="Layer 1" viewBox="0 0 512 512" width="512" height="512"><title>Email</title><path d="M440.953,239.155c-.007-.063-.013-.126-.021-.188a6.081,6.081,0,0,0-.142-.693c-.009-.035-.022-.068-.032-.1a5.993,5.993,0,0,0-.2-.583c-.023-.057-.047-.113-.072-.169a5.945,5.945,0,0,0-.277-.553c-.017-.029-.03-.058-.047-.086a5.917,5.917,0,0,0-.415-.611c-.019-.026-.041-.049-.061-.074-.129-.161-.267-.315-.413-.464-.047-.047-.094-.093-.143-.139a5.557,5.557,0,0,0-.425-.366c-.048-.038-.094-.078-.142-.114-.021-.015-.039-.032-.059-.047l-37.548-27v-55.01A18.98,18.98,0,0,0,382,134H323V81a46.053,46.053,0,0,0-46-46H117A46.053,46.053,0,0,0,71,81V431a46.053,46.053,0,0,0,46,46H277a46.053,46.053,0,0,0,46-46V375.249h95.81A22.214,22.214,0,0,0,441,353.061V239.838c0-.039-.007-.077-.008-.116C440.987,239.532,440.975,239.343,440.953,239.155Zm-231.6,116.5a10.158,10.158,0,0,1-.346-2.59V250.405l77.76,47.982Zm27.7-102.041-23.709-14.63,23.709-19.964Zm60.718,51.566,9.6,5.921a22.082,22.082,0,0,0,23.282.013l9.417-5.8L418.5,363.249H219.256Zm53.311-6.642L429,250.576V353.061a10.142,10.142,0,0,1-.386,2.743Zm73.106-59.084-23.228,14.3v-31Zm-35.228-86.492v56.684a6.01,6.01,0,0,0,0,2.568v48.921l-64.6,39.76a10.143,10.143,0,0,1-10.692-.007l-64.614-39.87V152.958A6.967,6.967,0,0,1,256.006,146H382A6.966,6.966,0,0,1,388.954,152.958ZM277,465H117a34.038,34.038,0,0,1-34-34V405H311v26A34.038,34.038,0,0,1,277,465Zm34-72H83V107H246a6,6,0,0,0,0-12H83V81a34.038,34.038,0,0,1,34-34H277a34.038,34.038,0,0,1,34,34V95H297a6,6,0,0,0,0,12h14v27H256.006a18.98,18.98,0,0,0-18.959,18.958v50.37l-37.909,31.92,0,0A5.985,5.985,0,0,0,197,239.838V353.061a22.1,22.1,0,0,0,6.028,15.18,6.059,6.059,0,0,0,.771.781,22.109,22.109,0,0,0,15.389,6.227H311Z"/><path d="M279.012,182.279h35.557a6,6,0,0,0,0-12H279.012a6,6,0,0,0,0,12Z"/><path d="M358.727,248.6H279.275a6,6,0,1,0,0,12h79.452a6,6,0,0,0,0-12Z"/><path d="M265.7,107h11.117a6,6,0,0,0,0-12H265.7a6,6,0,0,0,0,12Z"/><path d="M197,414a21,21,0,1,0,21,21A21.023,21.023,0,0,0,197,414Zm0,30a9,9,0,1,1,9-9A9.011,9.011,0,0,1,197,444Z"/><path d="M348.81,220.6h9.917a6,6,0,0,0,0-12H348.81a6,6,0,0,0,0,12Z"/><path d="M273.275,214.6a6,6,0,0,0,6,6h48.391a6,6,0,0,0,0-12H279.275A6,6,0,0,0,273.275,214.6Z"/></svg>
